<mxfile host="app.diagrams.net" agent="Mozilla/5.0 (Windows NT 10.0; Win64; x64) AppleWebKit/537.36 (KHTML, like Gecko) Chrome/128.0.0.0 Safari/537.36 OPR/114.0.0.0" version="25.0.3">
  <diagram name="Página-1" id="Ah8NjZ5Xg5xbvG-C6Z_T">
    <mxGraphModel dx="1391" dy="731" grid="1" gridSize="10" guides="1" tooltips="1" connect="1" arrows="1" fold="1" page="1" pageScale="1" pageWidth="827" pageHeight="1169" math="0" shadow="0">
      <root>
        <mxCell id="0" />
        <mxCell id="1" parent="0" />
        <mxCell id="hnj8AC3YeiDMYb95IlZ8-1" value="Inicio" style="strokeWidth=2;html=1;shape=mxgraph.flowchart.start_1;whiteSpace=wrap;" vertex="1" parent="1">
          <mxGeometry x="350" y="50" width="100" height="60" as="geometry" />
        </mxCell>
        <mxCell id="hnj8AC3YeiDMYb95IlZ8-2" value="nome" style="html=1;strokeWidth=2;shape=manualInput;whiteSpace=wrap;rounded=1;size=26;arcSize=11;" vertex="1" parent="1">
          <mxGeometry x="350" y="140" width="100" height="60" as="geometry" />
        </mxCell>
        <mxCell id="hnj8AC3YeiDMYb95IlZ8-3" value="salario" style="html=1;strokeWidth=2;shape=manualInput;whiteSpace=wrap;rounded=1;size=26;arcSize=11;" vertex="1" parent="1">
          <mxGeometry x="350" y="230" width="100" height="60" as="geometry" />
        </mxCell>
        <mxCell id="hnj8AC3YeiDMYb95IlZ8-5" style="edgeStyle=orthogonalEdgeStyle;rounded=0;orthogonalLoop=1;jettySize=auto;html=1;exitX=0.5;exitY=1;exitDx=0;exitDy=0;exitPerimeter=0;entryX=0.5;entryY=0.233;entryDx=0;entryDy=0;entryPerimeter=0;" edge="1" parent="1" source="hnj8AC3YeiDMYb95IlZ8-1" target="hnj8AC3YeiDMYb95IlZ8-2">
          <mxGeometry relative="1" as="geometry" />
        </mxCell>
        <mxCell id="hnj8AC3YeiDMYb95IlZ8-6" style="edgeStyle=orthogonalEdgeStyle;rounded=0;orthogonalLoop=1;jettySize=auto;html=1;exitX=0.5;exitY=1;exitDx=0;exitDy=0;entryX=0.5;entryY=0.25;entryDx=0;entryDy=0;entryPerimeter=0;" edge="1" parent="1" source="hnj8AC3YeiDMYb95IlZ8-2" target="hnj8AC3YeiDMYb95IlZ8-3">
          <mxGeometry relative="1" as="geometry" />
        </mxCell>
        <mxCell id="hnj8AC3YeiDMYb95IlZ8-76" value="faturamento" style="html=1;strokeWidth=2;shape=manualInput;whiteSpace=wrap;rounded=1;size=26;arcSize=11;" vertex="1" parent="1">
          <mxGeometry x="350" y="330" width="100" height="60" as="geometry" />
        </mxCell>
        <mxCell id="hnj8AC3YeiDMYb95IlZ8-77" style="edgeStyle=orthogonalEdgeStyle;rounded=0;orthogonalLoop=1;jettySize=auto;html=1;exitX=0.5;exitY=1;exitDx=0;exitDy=0;entryX=0.5;entryY=0.167;entryDx=0;entryDy=0;entryPerimeter=0;" edge="1" parent="1" source="hnj8AC3YeiDMYb95IlZ8-3" target="hnj8AC3YeiDMYb95IlZ8-76">
          <mxGeometry relative="1" as="geometry" />
        </mxCell>
        <mxCell id="hnj8AC3YeiDMYb95IlZ8-81" style="edgeStyle=orthogonalEdgeStyle;rounded=0;orthogonalLoop=1;jettySize=auto;html=1;exitX=1;exitY=0.5;exitDx=0;exitDy=0;exitPerimeter=0;entryX=0.5;entryY=0;entryDx=0;entryDy=0;" edge="1" parent="1" source="hnj8AC3YeiDMYb95IlZ8-78" target="hnj8AC3YeiDMYb95IlZ8-80">
          <mxGeometry relative="1" as="geometry" />
        </mxCell>
        <mxCell id="hnj8AC3YeiDMYb95IlZ8-82" value="Sim" style="edgeLabel;html=1;align=center;verticalAlign=middle;resizable=0;points=[];" vertex="1" connectable="0" parent="hnj8AC3YeiDMYb95IlZ8-81">
          <mxGeometry x="-0.296" y="-5" relative="1" as="geometry">
            <mxPoint x="-14" y="-20" as="offset" />
          </mxGeometry>
        </mxCell>
        <mxCell id="hnj8AC3YeiDMYb95IlZ8-84" style="edgeStyle=orthogonalEdgeStyle;rounded=0;orthogonalLoop=1;jettySize=auto;html=1;exitX=0;exitY=0.5;exitDx=0;exitDy=0;exitPerimeter=0;entryX=0.5;entryY=0;entryDx=0;entryDy=0;" edge="1" parent="1" source="hnj8AC3YeiDMYb95IlZ8-78" target="hnj8AC3YeiDMYb95IlZ8-83">
          <mxGeometry relative="1" as="geometry" />
        </mxCell>
        <mxCell id="hnj8AC3YeiDMYb95IlZ8-85" value="Não" style="edgeLabel;html=1;align=center;verticalAlign=middle;resizable=0;points=[];" vertex="1" connectable="0" parent="hnj8AC3YeiDMYb95IlZ8-84">
          <mxGeometry x="-0.4519" y="1" relative="1" as="geometry">
            <mxPoint y="-16" as="offset" />
          </mxGeometry>
        </mxCell>
        <mxCell id="hnj8AC3YeiDMYb95IlZ8-78" value="faturamento &amp;gt;5000" style="strokeWidth=2;html=1;shape=mxgraph.flowchart.decision;whiteSpace=wrap;" vertex="1" parent="1">
          <mxGeometry x="350" y="430" width="100" height="70" as="geometry" />
        </mxCell>
        <mxCell id="hnj8AC3YeiDMYb95IlZ8-79" style="edgeStyle=orthogonalEdgeStyle;rounded=0;orthogonalLoop=1;jettySize=auto;html=1;exitX=0.5;exitY=1;exitDx=0;exitDy=0;entryX=0.5;entryY=0;entryDx=0;entryDy=0;entryPerimeter=0;" edge="1" parent="1" source="hnj8AC3YeiDMYb95IlZ8-76" target="hnj8AC3YeiDMYb95IlZ8-78">
          <mxGeometry relative="1" as="geometry" />
        </mxCell>
        <mxCell id="hnj8AC3YeiDMYb95IlZ8-80" value="salarioFinal = salario + 300" style="rounded=1;whiteSpace=wrap;html=1;absoluteArcSize=1;arcSize=14;strokeWidth=2;" vertex="1" parent="1">
          <mxGeometry x="460" y="530" width="100" height="40" as="geometry" />
        </mxCell>
        <mxCell id="hnj8AC3YeiDMYb95IlZ8-83" value="salarioFinal = salario + 300" style="rounded=1;whiteSpace=wrap;html=1;absoluteArcSize=1;arcSize=14;strokeWidth=2;" vertex="1" parent="1">
          <mxGeometry x="230" y="530" width="100" height="40" as="geometry" />
        </mxCell>
        <mxCell id="hnj8AC3YeiDMYb95IlZ8-86" value="" style="verticalLabelPosition=bottom;verticalAlign=top;html=1;shape=mxgraph.flowchart.on-page_reference;" vertex="1" parent="1">
          <mxGeometry x="380" y="660" width="40" height="40" as="geometry" />
        </mxCell>
        <mxCell id="hnj8AC3YeiDMYb95IlZ8-87" style="edgeStyle=orthogonalEdgeStyle;rounded=0;orthogonalLoop=1;jettySize=auto;html=1;exitX=0.5;exitY=1;exitDx=0;exitDy=0;entryX=0;entryY=0.5;entryDx=0;entryDy=0;entryPerimeter=0;" edge="1" parent="1" source="hnj8AC3YeiDMYb95IlZ8-83" target="hnj8AC3YeiDMYb95IlZ8-86">
          <mxGeometry relative="1" as="geometry" />
        </mxCell>
        <mxCell id="hnj8AC3YeiDMYb95IlZ8-88" style="edgeStyle=orthogonalEdgeStyle;rounded=0;orthogonalLoop=1;jettySize=auto;html=1;exitX=0.5;exitY=1;exitDx=0;exitDy=0;entryX=1;entryY=0.5;entryDx=0;entryDy=0;entryPerimeter=0;" edge="1" parent="1" source="hnj8AC3YeiDMYb95IlZ8-80" target="hnj8AC3YeiDMYb95IlZ8-86">
          <mxGeometry relative="1" as="geometry" />
        </mxCell>
        <mxCell id="hnj8AC3YeiDMYb95IlZ8-89" value="nome&lt;div&gt;faturamento&lt;/div&gt;&lt;div&gt;salario&lt;/div&gt;&lt;div&gt;salarioFInal&lt;/div&gt;" style="strokeWidth=2;html=1;shape=mxgraph.flowchart.display;whiteSpace=wrap;" vertex="1" parent="1">
          <mxGeometry x="340" y="760" width="120" height="80" as="geometry" />
        </mxCell>
        <mxCell id="hnj8AC3YeiDMYb95IlZ8-90" style="edgeStyle=orthogonalEdgeStyle;rounded=0;orthogonalLoop=1;jettySize=auto;html=1;exitX=0.5;exitY=1;exitDx=0;exitDy=0;exitPerimeter=0;entryX=0.5;entryY=0;entryDx=0;entryDy=0;entryPerimeter=0;" edge="1" parent="1" source="hnj8AC3YeiDMYb95IlZ8-86" target="hnj8AC3YeiDMYb95IlZ8-89">
          <mxGeometry relative="1" as="geometry" />
        </mxCell>
        <mxCell id="hnj8AC3YeiDMYb95IlZ8-92" value="Fim" style="strokeWidth=2;html=1;shape=mxgraph.flowchart.start_1;whiteSpace=wrap;" vertex="1" parent="1">
          <mxGeometry x="350" y="900" width="100" height="60" as="geometry" />
        </mxCell>
        <mxCell id="hnj8AC3YeiDMYb95IlZ8-93" style="edgeStyle=orthogonalEdgeStyle;rounded=0;orthogonalLoop=1;jettySize=auto;html=1;exitX=0.5;exitY=1;exitDx=0;exitDy=0;exitPerimeter=0;entryX=0.5;entryY=0;entryDx=0;entryDy=0;entryPerimeter=0;" edge="1" parent="1" source="hnj8AC3YeiDMYb95IlZ8-89" target="hnj8AC3YeiDMYb95IlZ8-92">
          <mxGeometry relative="1" as="geometry" />
        </mxCell>
      </root>
    </mxGraphModel>
  </diagram>
</mxfile>
